<mxfile host="app.diagrams.net" modified="2023-10-05T01:47:09.482Z" agent="Mozilla/5.0 (Macintosh; Intel Mac OS X 10.15; rv:109.0) Gecko/20100101 Firefox/117.0" etag="FxnL1JM2VTJ8w2FKfmEk" version="22.0.0" type="device">
  <diagram name="Page-1" id="kIWTYXyLH7ZoiCDWMPKE">
    <mxGraphModel dx="1434" dy="797" grid="1" gridSize="10" guides="1" tooltips="1" connect="1" arrows="1" fold="1" page="1" pageScale="1" pageWidth="850" pageHeight="1100" math="0" shadow="0">
      <root>
        <mxCell id="0" />
        <mxCell id="1" parent="0" />
        <mxCell id="SrscX44y6WukDTvQ9Hl_-7" style="edgeStyle=orthogonalEdgeStyle;rounded=0;orthogonalLoop=1;jettySize=auto;html=1;exitX=1;exitY=0.25;exitDx=0;exitDy=0;entryX=0;entryY=0.5;entryDx=0;entryDy=0;startArrow=classic;startFill=1;" parent="1" source="SrscX44y6WukDTvQ9Hl_-1" target="SrscX44y6WukDTvQ9Hl_-2" edge="1">
          <mxGeometry relative="1" as="geometry" />
        </mxCell>
        <mxCell id="SrscX44y6WukDTvQ9Hl_-1" value="Arm Selector" style="rounded=0;whiteSpace=wrap;html=1;" parent="1" vertex="1">
          <mxGeometry x="120" y="170" width="120" height="60" as="geometry" />
        </mxCell>
        <mxCell id="SrscX44y6WukDTvQ9Hl_-2" value="Experiment Parameters" style="rounded=0;whiteSpace=wrap;html=1;" parent="1" vertex="1">
          <mxGeometry x="320" y="100" width="120" height="60" as="geometry" />
        </mxCell>
        <mxCell id="SrscX44y6WukDTvQ9Hl_-3" value="Reward Predictor" style="rounded=0;whiteSpace=wrap;html=1;" parent="1" vertex="1">
          <mxGeometry x="320" y="177" width="120" height="60" as="geometry" />
        </mxCell>
        <mxCell id="PRBiNUZiPko-5N84x-8b-2" style="edgeStyle=orthogonalEdgeStyle;rounded=0;orthogonalLoop=1;jettySize=auto;html=1;exitX=0;exitY=0.5;exitDx=0;exitDy=0;entryX=1.008;entryY=0.617;entryDx=0;entryDy=0;entryPerimeter=0;" edge="1" parent="1" source="SrscX44y6WukDTvQ9Hl_-3" target="SrscX44y6WukDTvQ9Hl_-1">
          <mxGeometry relative="1" as="geometry" />
        </mxCell>
        <mxCell id="PRBiNUZiPko-5N84x-8b-3" value="S3" style="shape=cylinder3;whiteSpace=wrap;html=1;boundedLbl=1;backgroundOutline=1;size=15;" vertex="1" parent="1">
          <mxGeometry x="530" y="167" width="60" height="80" as="geometry" />
        </mxCell>
        <mxCell id="PRBiNUZiPko-5N84x-8b-4" value="" style="endArrow=classic;startArrow=classic;html=1;rounded=0;exitX=1;exitY=0.5;exitDx=0;exitDy=0;entryX=0;entryY=0.5;entryDx=0;entryDy=0;entryPerimeter=0;" edge="1" parent="1" source="SrscX44y6WukDTvQ9Hl_-3" target="PRBiNUZiPko-5N84x-8b-3">
          <mxGeometry width="50" height="50" relative="1" as="geometry">
            <mxPoint x="400" y="430" as="sourcePoint" />
            <mxPoint x="450" y="380" as="targetPoint" />
          </mxGeometry>
        </mxCell>
        <mxCell id="PRBiNUZiPko-5N84x-8b-5" value="Model trainer" style="whiteSpace=wrap;html=1;aspect=fixed;" vertex="1" parent="1">
          <mxGeometry x="410" y="290" width="80" height="80" as="geometry" />
        </mxCell>
        <mxCell id="PRBiNUZiPko-5N84x-8b-6" value="" style="endArrow=classic;html=1;rounded=0;exitX=1;exitY=0.5;exitDx=0;exitDy=0;entryX=0.5;entryY=1;entryDx=0;entryDy=0;entryPerimeter=0;dashed=1;dashPattern=8 8;" edge="1" parent="1" source="PRBiNUZiPko-5N84x-8b-5" target="PRBiNUZiPko-5N84x-8b-3">
          <mxGeometry width="50" height="50" relative="1" as="geometry">
            <mxPoint x="400" y="430" as="sourcePoint" />
            <mxPoint x="450" y="380" as="targetPoint" />
            <Array as="points">
              <mxPoint x="560" y="330" />
            </Array>
          </mxGeometry>
        </mxCell>
        <mxCell id="PRBiNUZiPko-5N84x-8b-7" value="onnx model" style="whiteSpace=wrap;html=1;shape=mxgraph.basic.document" vertex="1" parent="1">
          <mxGeometry x="540" y="270" width="40" height="50" as="geometry" />
        </mxCell>
      </root>
    </mxGraphModel>
  </diagram>
</mxfile>
